# xmcd
#
# Track frame offsets: 
#        150
#        29420
#        52207
#        73665
#        95897
#        102142
#        120825
#        138727
#        162030
#
# Disc length: 2609 seconds
#
# Revision: 7
# Processed by: cddbd v1.5.2PL0 Copyright (c) Steve Scherf et al.
# Submitted via: ExactAudioCopy v1.3
#
DISCID=7d0a2f09
DTITLE=Eagles - Hotel California
DYEAR=1976
DGENRE=Rock
TTITLE0=Hotel California 
TTITLE1=New Kid In Town
TTITLE2=Life In The Fast Lane
TTITLE3=Wasted Time
TTITLE4=Wasted Time (Reprise)
TTITLE5=Victim Of Love
TTITLE6=Pretty Maids All In A Row
TTITLE7=Try And Love Again
TTITLE8=The Last Resort
EXTD=Digitally Remastered by Ted Jensen@ Sterling Sound,NYr\nThe Eagle
EXTD=s:\nJoe Walsh - vocals, quitar, keyboards\nGlenn Frey- vocals, gu
EXTD=itar, keyboards\nDon Henley - vocals, drums, percussion\nDon Feld
EXTD=er - vocals, guitar, slide quitar\nRandy Meisner - vocals, bass, 
EXTD=guitarone\n\nHotel California\nRecorded 03-10/1976\n(c) 1976Elekt
EXTD=ra/Asylum/Nonesuch Records YEAR: 1976
EXTT0=
EXTT1=
EXTT2=
EXTT3=
EXTT4=
EXTT5=
EXTT6=
EXTT7=
EXTT8=
PLAYORDER=
